<svg id="Glyphs_vecto_pour_svg" data-name="Glyphs vecto pour svg" xmlns="http://www.w3.org/2000/svg" viewBox="0 0 1080 1080"><title>Plan de travail 1 copie 2</title><path d="M101,540A439.1,439.1,0,0,0,944.5,710.9a440.5,440.5,0,0,0,0-341.8c-5.3-12.6-11.2-24.9-17.6-36.8l48-84.3a31.5,31.5,0,1,0-54.7-31.2l-31.9,55.9a453,453,0,0,0-37.8-43.2,439.1,439.1,0,0,0-621,0,453,453,0,0,0-37.8,43.2l-31.9-55.9A31.5,31.5,0,1,0,105.1,248l48,84.3c-6.4,11.9-12.3,24.2-17.6,36.8A436,436,0,0,0,101,540Zm815,0A373.7,373.7,0,0,1,805.9,805.9C748.4,863.4,675.6,900,596.6,911.8L888.8,399A374.9,374.9,0,0,1,916,540ZM274.1,274.1a376.1,376.1,0,0,1,531.8,0A382.8,382.8,0,0,1,854,332.9l-314,551-314-551A382.8,382.8,0,0,1,274.1,274.1ZM483.4,911.8c-79-11.8-151.8-48.4-209.3-105.9A377.1,377.1,0,0,1,191.2,399Z"/></svg>