<svg id="Glyphs_vecto_pour_svg" data-name="Glyphs vecto pour svg" xmlns="http://www.w3.org/2000/svg" viewBox="0 0 1080 1080"><title>Plan de travail 1 copie 6</title><path d="M963.1,205a31.5,31.5,0,0,0-42.9,11.8L772.3,476.4,567.4,116.9a31.6,31.6,0,0,0-54.8,0L307.7,476.4,159.8,216.8A31.5,31.5,0,1,0,105.1,248L271.5,540,105.1,832a31.5,31.5,0,1,0,54.7,31.2L307.7,603.6,512.6,963.1a31.6,31.6,0,0,0,54.8,0L772.3,603.6,920.2,863.2a31.4,31.4,0,0,0,27.4,15.9,31,31,0,0,0,15.5-4.1,31.5,31.5,0,0,0,11.8-43L808.5,540,974.9,248A31.5,31.5,0,0,0,963.1,205ZM540,883.9,344,540,540,196.1,736,540Z"/></svg>